inDegrees=no
num_controls=7
num_derivatives=13
num_iterations=133
num_multipliers=7
num_parameters=0
num_slacks=7
num_states=26
objective=0.477036
objective_accelerations=0.044502
objective_balance=0.003641
objective_effort=0.040604
objective_height=0.382628
objective_ligament=0.005661
solver_duration=2001.800651
status=Solve_Succeeded
success=true
DataType=double
version=3
OpenSimVersion=4.5
endheader
time	/jointset/ground_pelvis/pelvis_tilt/value	/jointset/ground_pelvis/pelvis_tx/value	/jointset/ground_pelvis/pelvis_ty/value	/jointset/hip_l/hip_flexion_l/value	/jointset/hip_l/hip_adduction_l/value	/jointset/hip_l/hip_rotation_l/value	/jointset/back/lumbar_extension/value	/jointset/patellofemoral_l/patellar_flexion_l/value	/jointset/knee_l/knee_flexion_l/value	/jointset/knee_l/knee_adduction_l/value	/jointset/knee_l/knee_rotation_l/value	/jointset/ankle_l/ankle_angle_l/value	/jointset/subtalar_l/subtalar_angle_l/value	/jointset/ground_pelvis/pelvis_tilt/speed	/jointset/ground_pelvis/pelvis_tx/speed	/jointset/ground_pelvis/pelvis_ty/speed	/jointset/hip_l/hip_flexion_l/speed	/jointset/hip_l/hip_adduction_l/speed	/jointset/hip_l/hip_rotation_l/speed	/jointset/back/lumbar_extension/speed	/jointset/patellofemoral_l/patellar_flexion_l/speed	/jointset/knee_l/knee_flexion_l/speed	/jointset/knee_l/knee_adduction_l/speed	/jointset/knee_l/knee_rotation_l/speed	/jointset/ankle_l/ankle_angle_l/speed	/jointset/subtalar_l/subtalar_angle_l/speed	/forceset/tau_hip_flexion_l	/forceset/tau_hip_adduction_l	/forceset/tau_hip_rotation_l	/forceset/tau_knee_flexion_l	/forceset/tau_ankle_angle_l	/forceset/tau_subtalar_angle_l	/forceset/tau_lumbar_extension	lambda_cid13_p0	lambda_cid13_p1	lambda_cid13_p2	lambda_cid13_p3	lambda_cid13_p4	lambda_cid13_p5	lambda_cid14_p0	/jointset/ground_pelvis/pelvis_tilt/accel	/jointset/ground_pelvis/pelvis_tx/accel	/jointset/ground_pelvis/pelvis_ty/accel	/jointset/hip_l/hip_flexion_l/accel	/jointset/hip_l/hip_adduction_l/accel	/jointset/hip_l/hip_rotation_l/accel	/jointset/back/lumbar_extension/accel	/jointset/patellofemoral_l/patellar_flexion_l/accel	/jointset/knee_l/knee_flexion_l/accel	/jointset/knee_l/knee_adduction_l/accel	/jointset/knee_l/knee_rotation_l/accel	/jointset/ankle_l/ankle_angle_l/accel	/jointset/subtalar_l/subtalar_angle_l/accel	gamma_cid13_p0	gamma_cid13_p1	gamma_cid13_p2	gamma_cid13_p3	gamma_cid13_p4	gamma_cid13_p5	gamma_cid14_p0
1	-0.1102584071127012	-0.05939697845965071	0.680713467517992	1.332379868963608	-0.3276795748692423	0.072695884269893	-0.9599299952174056	1.40230681288187	1.402306812881916	-0.06433160177633869	-0.1745288935121654	0.2782154435804206	0.06496622724165979	0.1026719826463586	0.02546459088056654	0.06994685690210148	-0.2975879108020154	-0.007346781769542268	-0.06505781879547871	-0.0003424907908624705	-0.1601028813424936	-0.160102881342488	-0.001869685622892995	-2.324652860349574e-05	0.02605715652900164	0.002844561784665319	-0.3740700593092876	0.01496442184095329	0.001465928977874974	-0.3783001441450083	0.04066088554659603	0.0261770852387786	0.4267551216430474	-38.24142543328882	-3.707087311672749	-0.9664999259534715	13.3238249194641	-801.1153125138579	-70.34022598163359	-0.04151504093697408	0.8173320471439198	-0.002427998318594425	1.562335117041146	-5.016797450654995	-0.1307667918077185	-1.667168298053912	0.03772944754210285	-5.034992342661637	-5.034992342661694	-0.3635641472185252	-0.0131185722015844	-1.192195285793778	-0.6713975919978472	-8.85620162924316e-09	2.012244988080234e-08	6.38726535437525e-08	6.082922581397266e-09	-2.336000946497808e-08	1.266477729489261e-07	-1.679972846534189e-08
1.01	-0.1091911453414625	-0.05914242340971834	0.6814907676957557	1.329154184351926	-0.327758821240185	0.0719611697260559	-0.9599310885968813	1.400454617285954	1.400454617286017	-0.06436652349987888	-0.1745288569325341	0.2784165181905265	0.06496217528757323	0.1107849189747238	0.02545033271326238	0.08549478836516594	-0.3475106938189139	-0.00849272201052023	-0.08187410098187049	0.0001196410928596425	-0.210307910844288	-0.210307910844293	-0.005108097622540632	2.755728051270067e-05	0.01414537365243129	-0.003647559062641018	-0.3729235529331077	0.01509091212186572	0.001388798001014054	-0.3779844320451675	0.04057601190821492	0.02633159824618093	0.4259989526304296	-38.2077781009025	-3.795830281087379	-0.9343654481675165	13.20842794896188	-800.354475863882	-70.42537505280457	-0.04154892154355588	0.8089542683808123	-0.0003358027176164046	1.548258029365309	-4.974274021467664	-0.1050499064105031	-1.687227599531612	0.05003135201129226	-5.009004511791387	-5.009004511792934	-0.3030067278711115	0.01375191754046489	-1.192528404254416	-0.6370232813002329	-1.406355046075471e-08	1.260507334724298e-08	9.354134545800859e-08	9.37738285804932e-09	-2.789792100857183e-08	1.470372831333092e-07	-2.339665231605897e-08
1.02	-0.1080426182384015	-0.05888789315681526	0.6824229943618351	1.325430420851223	-0.3278492354667719	0.07105861847623866	-0.9599276588897692	1.398101222143448	1.398101222143529	-0.06443363474371913	-0.1745283979028043	0.2784981032487336	0.06489342133497278	0.1189250490110099	0.02545963147470719	0.1009321545652712	-0.3972036886062292	-0.009580352898204697	-0.09862515999225491	0.0005648247055403919	-0.2603427906602045	-0.2603427906602198	-0.008307589683518298	6.124349251845386e-05	0.002159246149230758	-0.01009583791807567	-0.3717770465569223	0.01521740240278043	0.001311667024154124	-0.3776687199453264	0.04049113826983334	0.02648611125358617	0.4252427836178171	-38.18556944669069	-3.88120657191242	-0.9043256649704943	13.15073276583015	-799.7396305884954	-70.48572772721538	-0.04158361726310006	0.8227707887280979	0.002283387431192807	1.540222064449312	-4.970839804738356	-0.1191049211490207	-1.654123662852438	0.03433979333391496	-5.000962405486066	-5.000962405486068	-0.3557801594845308	-0.01654209162367599	-1.207064211119826	-0.6626291936235148	-2.131957691498218e-08	3.54587790346112e-09	1.213351055524587e-07	1.657082075819491e-08	-3.492087356482885e-08	1.647062084637917e-07	-2.964832611791989e-08
1.03	-0.1068131230035243	-0.0586329034692598	0.6835090162823851	1.321211186664198	-0.3279502203639535	0.06998895239531916	-0.9599177165441749	1.395248344015402	1.395248344015428	-0.06453259331823238	-0.1745276573015603	0.2784597428549378	0.06476056351327575	0.1269223746131861	0.02556736861129868	0.1162515364106316	-0.4465756961451949	-0.01060760530636622	-0.1152943853316358	0.001634255109341065	-0.3102037805171058	-0.3102037805171202	-0.01148151826315212	8.227896129155165e-05	-0.009815099648203034	-0.01645533801663628	-0.3722043055756887	0.01549574148930415	0.001193642560778732	-0.3768575652731671	0.04023773045708736	0.02675376618149711	0.426366033922028	-38.25251373314572	-4.014900294149228	-0.8496889924359078	12.6583963613512	-800.1165716013253	-70.54394218184734	-0.04162610815881725	0.7804672584122849	0.01938306764543494	1.524683837905176	-4.910267239306975	-0.09319616622345493	-1.67129978837845	0.1748362667894482	-4.974301893810264	-4.974301893810125	-0.2978266157246952	0.01077139354819305	-1.190187566342022	-0.6195686829896438	-2.859650824291084e-08	-5.529050386343426e-09	1.491097336895639e-07	2.380404414429454e-08	-4.19691836824396e-08	1.823473727243365e-07	-3.589647696009861e-08
1.04	-0.1055052037501365	-0.05837596357216396	0.684747609540054	1.316500255199611	-0.3280612099383333	0.06875299849722925	-0.9598907615738999	1.391897729065182	1.391897729065156	-0.06466321666024358	-0.1745268373401462	0.2783021254427102	0.06456471903758949	0.1346098527133587	0.02584967338278197	0.1314464219890135	-0.4955431441174151	-0.01158128833747658	-0.1318827234269186	0.00396734962859085	-0.3598901550947315	-0.3598901550947446	-0.01464054318366239	7.71155268799623e-05	-0.02169215753711132	-0.02269316871588936	-0.3726315645944719	0.01577408057582643	0.001075618097401091	-0.3760464106010091	0.03998432264434399	0.02702142110940736	0.4274892842262242	-38.33109798591209	-4.145151945274488	-0.7972048978266925	12.22246897305825	-800.6429166407671	-70.57791357791639	-0.04166814985017209	0.760801288327386	0.03719691440955115	1.515322811053593	-4.889927891389259	-0.1083910457387944	-1.637946214032813	0.2870726164235477	-4.966039349630962	-4.966039349630864	-0.3527994276598223	-0.02178187226062568	-1.187606629414732	-0.6382953137620191	-3.457267747988133e-08	-1.663397674449479e-08	1.752616649250171e-07	2.825046545408645e-08	-4.952594464503092e-08	1.924009379161179e-07	-4.137760151935655e-08
1.05	-0.1041218113366841	-0.05811529625821408	0.6861375493035201	1.311301433315568	-0.3281816156840112	0.06735162515637158	-0.9598342397073127	1.388051004098252	1.388051004098201	-0.06482539867676868	-0.1745261249262032	0.2780261963028333	0.06430717529711955	0.1420311209874475	0.02631613333727612	0.146522872360237	-0.5441776956886231	-0.0124860034556889	-0.1483767003744533	0.007540623903384172	-0.4094384888267328	-0.4094384888267386	-0.01779444704426752	6.694236478297444e-05	-0.03348040618123731	-0.02878880729892262	-0.3730222367045668	0.01613384013763935	0.000925235753703916	-0.3750346076861329	0.03978959415292357	0.02734607821285129	0.428633458602473	-38.37826541651343	-4.312733213806612	-0.7306905823231383	11.70290471413314	-801.061583141449	-70.64336801210469	-0.04172499451805572	0.7271600331697309	0.05622869146733052	1.500995902347225	-4.843693123326583	-0.07945332319845788	-1.652875034515503	0.4229948649567606	-4.946768543224466	-4.946768543223429	-0.2964989069202518	0.009646619490000776	-1.172447362647963	-0.5912013798607114	-4.050819790150938e-08	-2.780234054228197e-08	2.013628868822938e-07	3.260979919899375e-08	-5.709859469652788e-08	2.022173906370005e-07	-4.683475650727323e-08
1.06	-0.1026653321532484	-0.05784899271361965	0.6876776915211364	1.30561757104914	-0.3283106568965398	0.06578576172616019	-0.9597358770915796	1.383709288162355	1.383709288162279	-0.06501908234022996	-0.1745254579123439	0.2776327820003678	0.06398947452096181	0.1492272067103415	0.02697691951169096	0.161486912819073	-0.5925512205934329	-0.01330838170734066	-0.1647807412980567	0.01233549945615846	-0.4588883488883246	-0.4588883488883236	-0.02094087257124924	6.803550965525066e-05	-0.04518919005482057	-0.03472457585342527	-0.3734129088146738	0.01649359969945045	0.0007748534100006872	-0.374022804771258	0.03959486566150475	0.02767073531629362	0.4297776329787112	-38.43731669923594	-4.476780060850658	-0.6664002827043259	11.23772553532103	-801.6339702427338	-70.68569150255294	-0.0417802447928087	0.7157647780884373	0.07606215839368687	1.492840828576087	-4.83772255810964	-0.09192367242668709	-1.619959009246557	0.5313928720197025	-4.946344615549051	-4.946344615549049	-0.3513037609351423	-0.01952861086678198	-1.171713675306192	-0.6063213080559055	-4.452411214545302e-08	-3.975089348734157e-08	2.247294860695529e-07	3.274598198131618e-08	-6.17898842704287e-08	2.086394500863161e-07	-5.199651234289268e-08
1.07	-0.101137955097124	-0.05757511935602775	0.6893668038581102	1.299451490659763	-0.3284474969889708	0.06405642087803622	-0.9595837276521056	1.378873786891998	1.378873786892004	-0.06524422314631996	-0.1745247654654842	0.2771226343931061	0.06361322307364149	0.1562151522039854	0.02782914522435013	0.1763058893856603	-0.640598470897899	-0.01404317686971132	-0.1810663908638385	0.01827342099626274	-0.50817360138594	-0.5081736013859371	-0.02408218586508567	6.959164040267779e-05	-0.0568309431202091	-0.04049620777285034	-0.3731932372605211	0.01680969183261653	0.000591841711963866	-0.3727330618006578	0.03957211442881346	0.02807662978723366	0.4303274513380195	-38.39170292837902	-4.705198629366727	-0.5795518892156029	10.70444644368997	-801.4943584495612	-70.7954320615726	-0.04184778560111533	0.6853475542121705	0.09451829060119889	1.471962962439607	-4.778274172668254	-0.06181418975364625	-1.629759569637605	0.6518466785742695	-4.913858496026764	-4.913858496026479	-0.2948106793308381	0.009923072335411594	-1.159001839149547	-0.5581789885428777	-4.843791967781769e-08	-5.174094585512844e-08	2.479506265988324e-07	3.265752907413937e-08	-6.632790998913823e-08	2.148809567020377e-07	-5.714255545764526e-08
1.08	-0.09954169096222241	-0.0572917806387294	0.6912032133390977	1.292806928186131	-0.328591196383348	0.06216484520637737	-0.9593668280205144	1.373546584510834	1.37354658451092	-0.06550063019849214	-0.1745240723878564	0.2764963501117916	0.06318013633619542	0.1630046224660243	0.02886999145297941	0.1909463416218281	-0.6882476374444911	-0.01468024209653719	-0.197227706005365	0.02528553787910625	-0.5572285710499145	-0.5572285710499097	-0.02719412178784041	6.816166274639478e-05	-0.06841652486537241	-0.04609163387855825	-0.3729735657063588	0.01712578396578408	0.0004088300139195566	-0.3714433188300575	0.03954936319612058	0.02848252425817514	0.4308772696973362	-38.35815684731187	-4.929976785010449	-0.4950287286184806	10.22354793333678	-801.5112976981079	-70.883832435359	-0.04191262303200666	0.6760697317674382	0.1137862615877057	1.457135962492182	-4.758105806534866	-0.07237768531772669	-1.59509212439549	0.7462319405675343	-4.900288048820857	-4.900288048820827	-0.3454282867188046	-0.02012583254752368	-1.160479411261148	-0.5710801453124755	-5.28597514452906e-08	-6.4551234738719e-08	2.672463388923492e-07	3.377163099223695e-08	-7.137566988056794e-08	2.170380300545727e-07	-6.157218075498926e-08
